<?xml version="1.0" standalone="no"?>
<!DOCTYPE svg PUBLIC "-//W3C//DTD SVG 20010904//EN"
 "http://www.w3.org/TR/2001/REC-SVG-20010904/DTD/svg10.dtd">
<svg version="1.0" xmlns="http://www.w3.org/2000/svg"
 width="892.000000pt" height="179.000000pt" viewBox="0 0 892.000000 179.000000"
 preserveAspectRatio="xMidYMid meet">

<g transform="translate(0.000000,179.000000) scale(0.100000,-0.100000)"
fill="#000000" stroke="none">
<path d="M5220 1495 l0 -175 -50 0 c-50 0 -50 0 -50 -33 0 -31 -4 -35 -60 -62
-78 -37 -85 -46 -61 -74 11 -12 22 -46 26 -78 9 -76 21 -103 43 -103 10 0 28
-10 40 -23 21 -22 22 -33 22 -175 l0 -152 -55 0 -55 0 0 105 0 105 -262 -2
-263 -3 -3 -57 -3 -58 -74 0 -75 0 -26 -40 -27 -40 -83 0 c-77 0 -84 2 -84 20
0 19 -7 20 -110 20 l-110 0 0 -25 c0 -23 -4 -25 -45 -25 -38 0 -45 -3 -45 -20
0 -15 -7 -20 -25 -20 -16 0 -25 6 -25 15 0 12 -16 15 -85 15 -78 0 -85 -2 -85
-20 0 -11 -4 -20 -10 -20 -6 0 -10 80 -10 220 l0 220 -40 0 c-37 0 -40 2 -40
27 0 21 -20 48 -87 115 l-88 88 -107 0 -108 0 -41 -45 -42 -46 -22 21 c-19 17
-35 20 -126 20 l-104 0 -98 -96 c-55 -54 -97 -104 -97 -115 0 -14 -7 -19 -25
-19 -24 0 -25 -2 -25 -70 0 -56 -3 -70 -15 -70 -13 0 -15 -44 -15 -335 l0
-335 -30 0 c-25 0 -30 4 -30 25 l0 25 -140 0 c-133 0 -140 -1 -140 -20 0 -18
-7 -20 -65 -20 l-65 0 0 -55 0 -55 -55 0 -55 0 0 35 0 35 -65 0 c-51 0 -65 3
-65 15 0 12 -17 15 -90 15 -83 0 -90 -1 -90 -20 0 -19 -7 -20 -225 -20 l-225
0 0 -35 c0 -28 -4 -35 -20 -35 -16 0 -20 7 -20 30 l0 30 -125 0 -125 0 0 150
0 150 -55 0 -55 0 0 75 0 75 -240 0 -240 0 0 -140 0 -140 -135 0 -135 0 0
-135 c0 -113 2 -135 15 -135 13 0 15 20 15 120 l0 120 135 0 135 0 0 140 0
140 210 0 210 0 0 -75 0 -75 55 0 54 0 3 -147 3 -148 123 -3 122 -3 0 -29 c0
-29 1 -30 50 -30 l50 0 0 35 0 35 225 0 c218 0 225 1 225 20 0 18 7 20 65 20
51 0 65 -3 65 -15 0 -12 13 -15 60 -15 l60 0 0 -35 0 -35 85 0 85 0 0 55 0 55
65 0 c58 0 65 2 65 20 0 19 7 20 110 20 l110 0 0 -25 c0 -24 3 -25 60 -25 l60
0 0 335 c0 291 2 335 15 335 12 0 15 14 15 70 0 68 1 70 25 70 21 0 25 5 25
29 0 24 17 45 91 115 l92 86 87 0 c79 0 88 -2 110 -25 13 -14 28 -25 33 -25 5
0 29 23 54 50 l45 50 92 0 91 0 83 -83 c69 -69 82 -88 82 -115 0 -31 2 -32 40
-32 l40 0 0 -220 0 -220 40 0 c33 0 40 3 40 20 0 18 7 20 55 20 42 0 55 -3 55
-15 0 -12 13 -15 55 -15 48 0 55 2 55 20 0 17 7 20 45 20 41 0 45 2 45 25 0
25 1 25 80 25 73 0 80 -2 80 -20 0 -19 7 -20 108 -20 l108 0 23 40 22 40 85 0
84 0 0 60 0 60 235 0 235 0 0 -105 0 -105 85 0 85 0 0 173 -1 172 -29 33 c-16
17 -36 32 -45 32 -15 0 -17 4 -38 112 l-13 66 58 28 c50 24 58 31 58 56 l0 28
80 0 80 0 0 -28 c0 -25 8 -32 58 -56 l58 -28 -13 -66 c-21 -108 -23 -112 -38
-112 -9 0 -29 -15 -45 -32 l-29 -33 -1 -372 0 -373 70 0 c40 0 70 -4 70 -10 0
-5 25 -10 55 -10 l55 0 0 85 0 85 130 0 130 0 0 70 0 70 110 0 110 0 0 45 0
45 150 0 150 0 0 -30 0 -30 185 0 185 0 0 -60 0 -60 50 0 50 0 0 85 0 85 35 0
c28 0 35 4 35 20 0 19 7 20 140 20 118 0 140 -2 140 -15 0 -12 16 -15 80 -15
l80 0 0 -65 0 -65 70 0 70 0 0 412 0 413 72 72 c68 68 75 73 115 73 l43 0 0
-53 c0 -52 1 -53 70 -122 l70 -69 0 -223 0 -223 40 0 40 0 0 60 0 60 163 0
162 0 95 -44 95 -43 3 -46 3 -47 75 0 74 0 0 -220 0 -220 160 0 160 0 0 -110
c0 -91 3 -110 15 -110 13 0 15 21 15 125 l0 125 -160 0 -160 0 0 220 0 220
-75 0 -75 0 0 39 c0 43 11 35 -144 105 l-78 36 -179 0 -179 0 0 -60 c0 -33 -4
-60 -10 -60 -6 0 -10 77 -10 212 l0 211 -70 73 -70 72 0 61 0 61 -62 0 -63 -1
-82 -80 -83 -80 0 -404 0 -405 -40 0 -40 0 0 65 0 65 -80 0 c-64 0 -80 3 -80
15 0 13 -26 15 -170 15 -163 0 -170 -1 -170 -20 0 -16 -7 -20 -35 -20 l-35 0
0 -85 c0 -78 -2 -85 -20 -85 -18 0 -20 7 -20 60 l0 60 -185 0 -185 0 0 30 0
30 -180 0 -180 0 0 -45 0 -45 -110 0 -110 0 0 -70 0 -70 -130 0 -130 0 0 -85
c0 -84 0 -85 -25 -85 -14 0 -25 5 -25 10 0 6 -30 10 -70 10 l-70 0 0 353 0
354 23 21 c13 12 31 22 40 22 21 0 33 29 42 103 4 32 15 66 26 78 24 28 17 37
-61 74 -56 27 -60 31 -60 62 0 30 -3 33 -31 33 -55 0 -59 12 -59 189 0 136 -2
161 -15 161 -13 0 -15 -26 -15 -175z"/>
</g>
</svg>
